<?xml version="1.0" ?><svg style="enable-background:new 0 0 64 64;" version="1.1" viewBox="0 0 64 64" xml:space="preserve" xmlns="http://www.w3.org/2000/svg" xmlns:xlink="http://www.w3.org/1999/xlink"><style type="text/css">
	.st0{fill:#231F20;}
	.st1{fill:none;stroke:#000000;stroke-width:2;stroke-linecap:round;stroke-linejoin:round;stroke-miterlimit:10;}
</style><g id="FB"><g><path class="st0" d="M62,63H44c-0.6,0-1-0.4-1-1V36c0-0.6,0.4-1,1-1h5v-6h-5c-0.6,0-1-0.4-1-1V18c0-1.7,1.3-3,3-3h5V9h-7.1    c-3.8,0-6.9,3.1-6.9,6.9V28c0,0.6-0.4,1-1,1h-5v6h5c0.6,0,1,0.4,1,1v26c0,0.6-0.4,1-1,1H2c-0.6,0-1-0.4-1-1V2c0-0.6,0.4-1,1-1h60    c0.6,0,1,0.4,1,1v60C63,62.6,62.6,63,62,63z M45,61h16V3H3v58h32V37h-5c-0.6,0-1-0.4-1-1v-8c0-0.6,0.4-1,1-1h5V15.9    C35,11,39,7,43.9,7H52c0.6,0,1,0.4,1,1v8c0,0.6-0.4,1-1,1h-6c-0.6,0-1,0.4-1,1v9h5c0.6,0,1,0.4,1,1v8c0,0.6-0.4,1-1,1h-5V61z"/></g></g><g id="ig"/><g id="yt"/><g id="twitter"/><g id="snapchat"/><g id="WA"/><g id="Pinterrest"/><g id="LinkedIn"/><g id="Messenger"/><g id="Tiktok"/><g id="VK"/><g id="Thumblr"/><g id="OK.ru"/><g id="Weibo"/></svg>